<?xml version="1.0" encoding="utf-8"?>
<!-- Generator: Adobe Illustrator 20.1.0, SVG Export Plug-In . SVG Version: 6.00 Build 0)  -->
<svg version="1.1" id="图层_1" xmlns="http://www.w3.org/2000/svg" xmlns:xlink="http://www.w3.org/1999/xlink" x="0px" y="0px"
	 viewBox="0 0 300 69" style="enable-background:new 0 0 300 69;" xml:space="preserve">
<style type="text/css">
	.st0{fill:#FF6700;}
	.st1{fill:#7357FF;}
</style>
<path class="st0" d="M222.2,32.9c0-9.4-7.5-16.9-16.9-16.9c-9.4,0-16.9,7.5-16.9,16.9c0,9.4,7.5,16.9,16.9,16.9c2.8,0,5.4-0.8,7.6-2
	c0.9,1.2,2.4,2,3.9,2c2.9,0,5.3-2.4,5.3-5.3C222.2,44.6,222.2,33.2,222.2,32.9z M205.3,39.4c-3.6,0-6.5-2.9-6.5-6.5s2.9-6.5,6.5-6.5
	s6.5,2.9,6.5,6.5C211.8,36.4,208.9,39.4,205.3,39.4z"/>
<path class="st0" d="M229.7,16c-3.9,0-7.6,1.5-10.4,3.7c2.5,2.6,4.4,6,5,9.9c1.2-1.8,3.2-3,5.4-3c3.6,0,6.5,2.9,6.5,6.5
	c0,3.6-2.9,6.5-6.5,6.5c-2.4,0-4.4-1.2-5.4-3c-0.2,4.4,0.5,9.5-0.9,11.7c1.8,1.2,2.5,1.7,6.5,1.7c9.4,0,16.9-7.5,16.9-16.9
	C246.6,23.5,238.9,16,229.7,16z"/>
<g>
	<path class="st0" d="M219.5,19.9c1.3-1.1,1.6-1.1,2.9-1.9V8.4c0-2.6-2.4-4.7-5.2-4.7c-2.8,0-5.2,2.1-5.2,4.7v6.8
		C214.3,15.6,218.1,18.4,219.5,19.9z"/>
</g>
<g>
	<path class="st0" d="M263.3,38.4c-3.2-2.3-6,0-6,0c-1.1,0.7-2.3,1.1-3.6,1.1c-2.3,0-4.2-1.1-5.4-2.8c-0.8,3.7-2.5,7-5.2,9.5
		c3,2.4,6.7,3.7,10.8,3.7c3.8-0.2,7.8-1.5,10.1-3.8C265.7,44.6,266.5,40.7,263.3,38.4z"/>
	<path class="st0" d="M248.4,29.3c1.2-1.6,2.9-2.6,5-2.6c1.3,0,2.5,0.3,3.6,0.9l0,0c1.3,0.9,2.9,0.8,2.9,0.8
		c3.8-0.2,5.3-3.4,5.2-5.3c-0.2-1.7-0.8-2.9-1.5-3.6c-2-2-5.7-3.4-10.3-3.3c-3.7,0.2-7,1.3-9.6,3.4
		C246.1,22.3,247.7,25.6,248.4,29.3z"/>
</g>
<g>
	<path class="st1" d="M106.6,32.5c0,0,0.4-17.1,17.4-17.7c0,0,5.3-0.2,9.6,2.8c3.9,2.8,8.1,7.1,8.1,14.9c0,11.6-0.2,12.5-0.2,12.5
		s0,5.2-5.2,5.2c-5.2,0-5.2-5.2-5.2-5.2V32.5c0,0,0.2-7.3-7.4-7.3c0,0-7.4-0.3-7.4,7.3H106.6L106.6,32.5z"/>
	<path class="st1" d="M111.5,50.3L111.5,50.3c-2.8,0-5.2-2.3-5.2-5.2v-25c0-2.8,2.3-5.2,5.2-5.2l0,0c2.8,0,5.2,2.3,5.2,5.2v25
		C116.5,48,114.2,50.3,111.5,50.3z"/>
</g>
<path class="st1" d="M164.8,15.1c-9.8,0-17.8,7.9-17.8,17.8c0,9.9,7.9,17.8,17.8,17.8c9.8,0,17.8-7.9,17.8-17.8
	C182.6,23,174.6,15.1,164.8,15.1z M164.8,39.5c-3.9,0-7.3-3.3-7.3-7.3s3.3-7.3,7.3-7.3c3.9,0,7.3,3.3,7.3,7.3S168.8,39.5,164.8,39.5
	z"/>
<path class="st1" d="M51.2,15c-9.8,0-17.8,7.9-17.8,17.8s7.9,17.8,17.8,17.8C61,50.5,69,42.6,69,32.7S61,15,51.2,15z M51.2,39.2
	c-3.9,0-7.3-3.3-7.3-7.3s3.3-7.3,7.3-7.3s7.3,3.3,7.3,7.3C58.5,36.1,55.1,39.2,51.2,39.2z"/>
<path class="st1" d="M38.5,38.2L38.5,38.2c-2.8,0-5.2-2.3-5.2-5.2V5.9c0-2.8,2.3-5.2,5.2-5.2l0,0c2.8,0,5.2,2.3,5.2,5.2V33
	C43.6,35.9,41.3,38.2,38.5,38.2z"/>
<path class="st1" d="M79.7,50.4L79.7,50.4c-2.8,0-5.2-2.3-5.2-5.2V5.8c0-2.8,2.3-5.2,5.2-5.2l0,0c2.8,0,5.2,2.3,5.2,5.2v39.4
	C84.8,48.2,82.6,50.4,79.7,50.4z"/>
<path class="st1" d="M95.5,50.3L95.5,50.3c-2.8,0-5.2-2.3-5.2-5.2V19.9c0-2.8,2.3-5.2,5.2-5.2l0,0c2.8,0,5.2,2.3,5.2,5.2v25.3
	C100.6,48,98.4,50.3,95.5,50.3z"/>
<path class="st1" d="M182.5,33.2v18c0,0-0.3,17.1-17.8,17.8c0,0-12.1,0.3-16.4-11.4c0,0-1.3-4.2,3-6.2c0,0,4.5-1.7,6.8,3
	c1.7,3.6,6.5,3.2,6.5,3.2s6.5,0,7.3-6.7V47L182.5,33.2z"/>
<g>
	<circle class="st0" cx="165.1" cy="5.5" r="2"/>
	<path class="st0" d="M165.1,3.5c0,0,7.1-0.4,12.8,5.9c5.7,6.3,4.5,13.7,4.5,13.7s-1.2-14.6-17.2-15.7V3.5z"/>
</g>
<path class="st0" d="M198.6,9.4c-0.4-0.1-0.9-0.1-1.3,0.1l0,0c0,0-0.1,0.1-0.2,0.1h-0.1c-1.4,0.7-7.7,4.2-9.2,13
	c0,0,2.9-6.7,10.7-9.3c0.1,0,0.3-0.1,0.3-0.1c0.5-0.2,0.9-0.7,1.1-1.3C200.3,10.9,199.7,9.8,198.6,9.4z"/>
<path class="st0" d="M99.4,3.8c-1.3-0.3-2.7-1.3-3.2-2.3c0,0-0.3-0.8-0.8-0.8c0,0-0.4-0.1-0.8,0.9c-0.7,1.3-2.2,2.1-3.7,2.3
	c-0.3,0-0.5,0.2-0.5,0.5c0,0-0.1,0.2,0.4,0.6c0.1,0.1,0.3,0.3,0.4,0.4c0.4,0.5,0.6,0.9,0.8,1.5c0.2,0.7,0.3,1.5,0.2,2.3
	c0,0.3,0,0.8,0.6,0.8c0.3,0,0.8-0.3,1.1-0.4c1.1-0.5,2.4-0.7,4.2,0.2c0.3,0.2,0.6,0.2,0.8,0.1c0.3-0.3,0.2-0.5,0.2-1.3
	c0-1.3,0.5-2.6,1.5-3.5c0,0,0.6-0.4,0.1-0.9C100.2,3.9,100,3.9,99.4,3.8z"/>
</svg>
